<svg xmlns="http://www.w3.org/2000/svg" xmlns:svg="http://www.w3.org/2000/svg" xmlns:xlink="http://www.w3.org/1999/xlink" id="svg11310" width="500" height="500" version="1.0" viewBox="-0.811 -0.732 1708 1708" xml:space="preserve"><metadata id="metadata52"/><defs id="defs11312"><linearGradient id="linearGradient19837"><stop style="stop-color:#00b400;stop-opacity:1" id="stop19839" offset="0"/><stop style="stop-color:#00b400;stop-opacity:0" id="stop19841" offset="1"/></linearGradient><linearGradient id="linearGradient14977"><stop style="stop-color:white;stop-opacity:.47058824" id="stop14979" offset="0"/><stop style="stop-color:white;stop-opacity:.70588237" id="stop14981" offset="1"/></linearGradient><linearGradient id="linearGradient14071"><stop style="stop-color:white;stop-opacity:1" id="stop14073" offset="0"/><stop style="stop-color:white;stop-opacity:0" id="stop14075" offset="1"/></linearGradient><linearGradient id="linearGradient14012"><stop style="stop-color:#00dc00;stop-opacity:1" id="stop14014" offset="0"/><stop style="stop-color:#3dff01;stop-opacity:.58823532" id="stop14016" offset="1"/></linearGradient><linearGradient id="linearGradient14004"><stop style="stop-color:white;stop-opacity:1" id="stop14006" offset="0"/><stop style="stop-color:white;stop-opacity:0" id="stop14008" offset="1"/></linearGradient><linearGradient id="linearGradient14010" x1="1531.175" x2="514.254" y1="-710.262" y2="1775.344" gradientTransform="matrix(0.995461,0,0,0.995461,3.833802,3.912899)" gradientUnits="userSpaceOnUse" xlink:href="#linearGradient14004"/><linearGradient id="linearGradient14022" x1="1026.728" x2="1703.623" y1="1147.711" y2="1703.622" gradientTransform="matrix(0.995461,0,0,0.995461,3.833802,3.912899)" gradientUnits="userSpaceOnUse" xlink:href="#linearGradient14012"/><linearGradient id="linearGradient14077" x1="853.229" x2="853.229" y1="6994.74" y2="-1149.491" gradientUnits="userSpaceOnUse" xlink:href="#linearGradient14071"/><linearGradient id="linearGradient19843" x1="1678.559" x2="1678.559" y1="288.912" y2="1417.624" gradientUnits="userSpaceOnUse" xlink:href="#linearGradient19837"/></defs><g transform="translate(-5.210447e-5,4.612732e-5)" style="opacity:1;display:inline" id="layer1"><path d="M 1417.5448,1699.8019 C 1573.387,1699.8019 1699.7228,1573.4671 1699.7228,1417.6237" style="fill:none;fill-opacity:.07843137;stroke:#31e831;stroke-width:10.2480011;stroke-linecap:round;stroke-linejoin:round;stroke-miterlimit:100;stroke-dasharray:none;stroke-opacity:.66666667" id="path17680"/><path d="M 6.6549519,1417.6237 C 6.6549519,1573.4671 132.99081,1699.8019 288.83311,1699.8019" style="fill:none;fill-opacity:.07843137;stroke:#31e831;stroke-width:10.2480011;stroke-linecap:round;stroke-linejoin:round;stroke-miterlimit:100;stroke-dasharray:none;stroke-opacity:.66666667" id="path17682"/><line style="fill:none;fill-opacity:.07843137;stroke:#31e831;stroke-width:10.2480011;stroke-linecap:round;stroke-linejoin:round;stroke-miterlimit:100;stroke-dasharray:none;stroke-opacity:.66666667" id="line17684" x1="288.833" x2="1417.545" y1="1699.802" y2="1699.802" stroke-miterlimit="500"/><line style="fill:none;fill-opacity:.07843137;stroke:#31e831;stroke-width:10.2480011;stroke-linecap:round;stroke-linejoin:round;stroke-miterlimit:100;stroke-dasharray:none;stroke-opacity:.66666667" id="line17690" x1="6.655" x2="6.655" y1="288.912" y2="1417.624" stroke-miterlimit="500"/><path d="M 288.83311,6.7339793 C 132.99081,6.7339793 6.6549519,133.06984 6.6549519,288.91214" style="fill:none;fill-opacity:.07843137;stroke:#31e831;stroke-width:10.2480011;stroke-linecap:round;stroke-linejoin:round;stroke-miterlimit:100;stroke-dasharray:none;stroke-opacity:.66666667" id="path17692"/><line style="fill:none;fill-opacity:.07843137;stroke:#31e831;stroke-width:10.2480011;stroke-linecap:round;stroke-linejoin:round;stroke-miterlimit:100;stroke-dasharray:none;stroke-opacity:.66666667" id="line17694" x1="1417.545" x2="288.833" y1="6.734" y2="6.734" stroke-miterlimit="500"/><line style="fill:none;fill-opacity:.07843137;stroke:#31e831;stroke-width:10.2480011;stroke-linecap:round;stroke-linejoin:round;stroke-miterlimit:100;stroke-dasharray:none;stroke-opacity:.66666667" id="line17700" x1="1699.723" x2="1699.723" y1="1417.624" y2="288.912" stroke-miterlimit="500"/><path d="M 1699.7228,288.91214 C 1699.7228,214.07442 1669.9934,142.30174 1617.0748,89.383072 C 1564.1561,36.464399 1492.3835,6.7349693 1417.5457,6.7349693 L 288.83311,6.7349693 C 213.9944,6.7349693 142.22172,36.464399 89.303052,89.383072 C 36.385372,142.30174 6.6549519,214.07442 6.6549519,288.91214 L 6.6549519,1417.6237 C 6.6549519,1492.4625 36.384382,1564.2352 89.303052,1617.1528 C 142.22172,1670.0716 213.9944,1699.801 288.83311,1699.801 L 1417.5448,1699.801 C 1492.3835,1699.801 1564.1552,1670.0716 1617.0738,1617.1528 C 1669.9925,1564.2352 1699.7219,1492.4615 1699.7219,1417.6237 L 1699.7219,288.91214 L 1699.7228,288.91214 z" style="opacity:1;fill:url(#linearGradient14022);fill-opacity:1;fill-rule:evenodd;display:inline" id="path17668"/><path d="M 1699.7228,288.91214 C 1699.7228,133.06984 1573.387,6.7349693 1417.5448,6.7349693 L 288.83311,6.7349693 C 132.99081,6.7339793 6.6549519,133.06984 6.6549519,288.91214 L 6.6549519,1135.4457 C 684.27075,1188.7794 1335.8205,863.00502 1699.7228,288.91214 z" style="opacity:1;fill:url(#linearGradient14010);fill-opacity:1;fill-rule:evenodd;display:inline" id="path17670"/><path d="M 1417.5448,1671.5836 C 1558.5029,1661.1612 1674.5607,1556.7094 1699.7228,1417.6237 C 1699.7228,1573.4671 1573.387,1699.8019 1417.5448,1699.8019 L 288.83311,1699.8019 C 132.99081,1699.8019 6.6549519,1573.4671 6.6549519,1417.6237 C 31.816212,1556.7094 147.87494,1661.1612 288.83311,1671.5836 L 1417.5448,1671.5836 z" style="fill:#fff;fill-opacity:.25842698;fill-rule:evenodd" id="path11342"/><path d="M 1417.5448,1699.8019 C 1573.387,1699.8019 1699.7228,1573.4671 1699.7228,1417.6237" style="fill:none;stroke:#5f5;stroke-width:14.93190384;stroke-linecap:round;stroke-linejoin:round;stroke-miterlimit:100;stroke-dasharray:none;stroke-opacity:1" id="path11336"/><path d="M 6.6549519,1417.6237 C 6.6549519,1573.4671 132.99081,1699.8019 288.83311,1699.8019" style="fill:none;stroke:#5f5;stroke-width:14.93190384;stroke-linecap:round;stroke-linejoin:round;stroke-miterlimit:100;stroke-dasharray:none;stroke-opacity:1" id="path11334"/><line id="line11326" x1="288.833" x2="1417.545" y1="1699.802" y2="1699.802" stroke-miterlimit="500" style="fill:none;stroke:#5f5;stroke-width:14.93190384;stroke-linecap:round;stroke-linejoin:round;stroke-miterlimit:100;stroke-dasharray:none;stroke-opacity:1"/><line id="line11332" x1="6.655" x2="6.655" y1="288.912" y2="1417.624" stroke-miterlimit="500" style="fill:none;stroke:#5f5;stroke-width:14.93190384;stroke-linecap:round;stroke-linejoin:round;stroke-miterlimit:100;stroke-dasharray:none;stroke-opacity:1"/><path d="M 288.83311,6.7339793 C 132.99081,6.7339793 6.6549519,133.06984 6.6549519,288.91214" style="fill:none;stroke:#5f5;stroke-width:14.93190384;stroke-linecap:round;stroke-linejoin:round;stroke-miterlimit:100;stroke-dasharray:none;stroke-opacity:1" id="path11340"/><line id="line11330" x1="1417.545" x2="288.833" y1="6.734" y2="6.734" stroke-miterlimit="500" style="fill:none;stroke:#5f5;stroke-width:14.93190384;stroke-linecap:round;stroke-linejoin:round;stroke-miterlimit:100;stroke-dasharray:none;stroke-opacity:1"/><path d="M 1699.7228,288.91214 C 1699.7228,133.06984 1573.387,6.7349693 1417.5448,6.7349693" style="fill:none;stroke:#5f5;stroke-width:14.93190384;stroke-linecap:round;stroke-linejoin:round;stroke-miterlimit:100;stroke-dasharray:none;stroke-opacity:1" id="path11338"/><line id="line11328" x1="1699.723" x2="1699.723" y1="1417.624" y2="288.912" stroke-miterlimit="500" style="fill:none;stroke:#5f5;stroke-width:14.93190384;stroke-linecap:round;stroke-linejoin:round;stroke-miterlimit:100;stroke-dasharray:none;stroke-opacity:1"/><path d="M 1417.5448,1671.5836 C 1558.5029,1661.1612 1674.5607,1556.7094 1699.7228,1417.6237 C 1699.7228,1573.4671 1573.387,1699.8019 1417.5448,1699.8019 L 288.83311,1699.8019 C 132.99081,1699.8019 6.6549519,1573.4671 6.6549519,1417.6237 C 31.816212,1556.7094 147.87494,1661.1612 288.83311,1671.5836 L 1417.5448,1671.5836 z" style="fill:#fff;fill-opacity:.58823529;fill-rule:evenodd" id="path17676"/><path d="M 1699.7228,288.91214 C 1699.7228,133.06984 1573.387,6.7349693 1417.5448,6.7349693" style="fill:none;fill-opacity:.07843137;stroke:#31e831;stroke-width:10.2480011;stroke-linecap:round;stroke-linejoin:round;stroke-miterlimit:100;stroke-dasharray:none;stroke-opacity:.66666667" id="path17696"/><path d="M 6.6549519,1417.6237 C 30.031352,1417.6237 48.981922,1164.954 48.981922,853.26745 C 48.981922,541.58286 30.031352,288.91214 6.6549519,288.91214 L 6.6549519,1417.6237 L 6.6549519,1417.6237 z" style="fill:#00b400;fill-opacity:.58823529;fill-rule:evenodd" id="path11324"/><path d="M 1699.7228,1417.6237 C 1676.3465,1417.6237 1657.3949,1164.954 1657.3949,853.26745 C 1657.3949,541.58286 1676.3455,288.91214 1699.7228,288.91214 L 1699.7228,1417.6237 z" style="fill:url(#linearGradient19843);fill-opacity:1;fill-rule:evenodd" id="path11322"/><path d="M 1699.7228,288.91214 C 1652.7113,168.68342 1545.1607,82.642811 1417.5448,63.170614 L 288.83311,63.170614 C 161.21708,82.642811 53.666562,168.68243 6.6549519,288.91214 C 6.6549519,133.06984 132.99081,6.7349693 288.83311,6.7349693 L 1417.5448,6.7349693 C 1573.387,6.7339793 1699.7228,133.06984 1699.7228,288.91214 z" style="fill:#fff;fill-opacity:.54901961;fill-rule:evenodd" id="path14085"/></g><g id="g3589" transform="translate(43.106908,13.199214)"><rect id="rect2427" width="895.201" height="672.791" x="362.307" y="725.289" rx="111.049" ry="99.201" style="fill:#fff;fill-opacity:1;fill-rule:nonzero;stroke:#000;stroke-width:.7086615;stroke-linecap:round;stroke-linejoin:round;marker:none;marker-start:none;marker-mid:none;marker-end:none;stroke-miterlimit:4;stroke-dasharray:none;stroke-dashoffset:0;stroke-opacity:1;visibility:visible;display:inline;overflow:visible;enable-background:accumulate"/><path id="path2510" d="M 507.5543,799.4727 C 507.5543,718.7798 507.5543,625.9829 507.5543,545.29 C 507.5543,498.2371 532.6031,445.1986 555.9701,412.1467 C 622.7675,317.6641 701.2173,291.1073 822.2567,291.1073 C 822.2567,291.1073 822.2567,436.3546 822.2567,472.6664 C 798.0488,472.6664 773.8409,472.6664 737.5291,472.6664 C 713.3212,472.6664 664.9055,496.8742 664.9055,545.29 C 664.9055,617.9137 664.9055,799.4727 664.9055,799.4727 L 507.5543,799.4727 z" style="fill:#fff;fill-opacity:1;fill-rule:evenodd;stroke:none;stroke-width:1px;stroke-linecap:butt;stroke-linejoin:miter;stroke-opacity:1"/><path id="path3338" d="M 1112.7512,799.4727 C 1112.7512,718.7798 1112.7512,625.9829 1112.7512,545.29 C 1112.7512,498.2371 1087.7024,445.1986 1064.3354,412.1467 C 997.538,317.6641 919.0882,291.1073 798.0488,291.1073 C 798.0488,291.1073 798.0488,436.3546 798.0488,472.6664 C 822.2567,472.6664 846.4646,472.6664 882.7764,472.6664 C 906.9843,472.6664 955.4,496.8742 955.4,545.29 C 955.4,617.9137 955.4,799.4727 955.4,799.4727 L 1112.7512,799.4727 z" style="fill:#fff;fill-opacity:1;fill-rule:evenodd;stroke:none;stroke-width:1px;stroke-linecap:butt;stroke-linejoin:miter;stroke-opacity:1"/><path id="path2499" style="fill:#000;fill-opacity:.62745098;fill-rule:evenodd;display:inline" d="M 564.77,399.8224 C 698.1007,254.5752 933.8066,254.3629 1054.8459,399.6101 C 970.1184,242.259 661.7889,242.4713 564.77,399.8224 z"/><path id="path3340" style="fill:#000;fill-opacity:.62745098;fill-rule:evenodd;display:inline" d="M 362.3071,823.6805 C 380.463,751.0569 422.8268,726.849 507.5543,726.849 C 507.6253,724.8327 507.5543,726.849 507.5543,725.6386 C 501.5024,725.6386 474.2685,725.6386 468.2165,725.6386 C 428.8787,725.6386 365.3331,745.0049 362.3071,823.6805 z"/><path d="M 1258.2115,823.68054 C 1240.0556,751.05694 1197.6918,726.84904 1112.9643,726.84904 C 1112.8933,724.83274 1112.9643,726.84904 1112.9643,725.63864 C 1119.0162,725.63864 1146.2501,725.63864 1152.3021,725.63864 C 1191.6399,725.63864 1255.1855,745.00494 1258.2115,823.68054 z" style="opacity:1;fill:#000;fill-opacity:.62745098;fill-rule:evenodd;display:inline" id="path2453"/></g></svg>